#Comment line ignore any data following # character 
#Hierarchical Translation and Rotation (.htr) file 
[Header]	
#Header keywords are followed by a single value 
FileType HTR		#Single word string
DataType HTRS		#Translation followed by rotation and scale data
FileVersion 1		#integer
NumSegments 84		#integer
NumFrames 2		#integer
DataFrameRate 30		#integer, data frame rate in this file
EulerRotationOrder ZYX
CalibrationUnits mm
RotationUnits Degrees
GlobalAxisofGravity Y
BoneLengthAxis Y
ScaleFactor 1.00
[SegmentNames&Hierarchy]
#CHILD	PARENT
MASTER GLOBAL
root MASTER
chest root
L_mid_tent01 root
R_mid_tent01 root
spine01 root
Bip01_Neck chest
L_humerus chest
R_humerus chest
weapon_bone chest
Bip01_Head Bip01_Neck
eye_left_bone Bip01_Head
eye_right_bone Bip01_Head
L_forearm L_humerus
L_front_hand L_forearm
L_weapon_bone L_forearm
L_front_hand01_01 L_front_hand
L_front_hand02_01 L_front_hand
L_front_hand03_01 L_front_hand
L_front_hand01_02 L_front_hand01_01
L_front_hand02_02 L_front_hand02_01
L_front_hand03_02 L_front_hand03_01
R_forearm R_humerus
R_front_hand R_forearm
R_weapon_bone R_forearm
R_front_hand01_01 R_front_hand
R_front_hand02_01 R_front_hand
R_front_hand03_01 R_front_hand
R_front_hand01_02 R_front_hand01_01
R_front_hand02_02 R_front_hand02_01
R_front_hand03_02 R_front_hand03_01
null_rope01_connect L_mid_tent01
Rope1_Seg01 null_rope01_connect
Rope1_Seg02 Rope1_Seg01
Rope1_Seg03 Rope1_Seg02
Rope1_Seg04 Rope1_Seg03
Rope1_Seg05 Rope1_Seg04
Rope1_Seg06 Rope1_Seg05
Rope1_Seg07 Rope1_Seg06
Rope1_Seg09 Rope1_Seg07
L_mid_hand01 Rope1_Seg09
L_mid_hand02 Rope1_Seg09
L_mid_hand03 Rope1_Seg09
null_rope02_connect R_mid_tent01
Rope2_Seg01 null_rope02_connect
Rope2_Seg02 Rope2_Seg01
Rope2_Seg03 Rope2_Seg02
Rope2_Seg04 Rope2_Seg03
Rope2_Seg05 Rope2_Seg04
Rope2_Seg06 Rope2_Seg05
Rope2_Seg07 Rope2_Seg06
Rope2_Seg09 Rope2_Seg07
R_mid_hand01 Rope2_Seg09
R_mid_hand02 Rope2_Seg09
R_mid_hand03 Rope2_Seg09
spine02 spine01
spine03 spine02
pelvis spine03
null_rope03_connect pelvis
null_rope04_connect pelvis
Rope3_Seg01 null_rope03_connect
Rope3_Seg02 Rope3_Seg01
Rope3_Seg03 Rope3_Seg02
Rope3_Seg04 Rope3_Seg03
Rope3_Seg05 Rope3_Seg04
Rope3_Seg06 Rope3_Seg05
Rope3_Seg07 Rope3_Seg06
Rope3_Seg08 Rope3_Seg07
Rope3_Seg09 Rope3_Seg08
R_rear_hand01 Rope3_Seg09
R_rear_hand02 Rope3_Seg09
R_rear_hand03 Rope3_Seg09
Rope4_Seg01 null_rope04_connect
Rope4_Seg02 Rope4_Seg01
Rope4_Seg03 Rope4_Seg02
Rope4_Seg04 Rope4_Seg03
Rope4_Seg05 Rope4_Seg04
Rope4_Seg06 Rope4_Seg05
Rope4_Seg07 Rope4_Seg06
Rope4_Seg08 Rope4_Seg07
Rope4_Seg09 Rope4_Seg08
L_rear_hand01 Rope4_Seg09
L_rear_hand02 Rope4_Seg09
L_rear_hand03 Rope4_Seg09
[BasePosition]
#SegmentName Tx, Ty, Tz, Rx, Ry, Rz, BoneLength
MASTER 0.000000 0.000000 0.000000 -90.000000 0.000000 0.000000 10.000000 
root 0.000000 0.000000 0.000000 0.000000 0.000000 0.000000 10.000000 
chest 0.000000 0.000000 0.000000 0.000000 0.000000 0.000000 10.000000 
L_mid_tent01 0.000000 0.000000 0.000000 0.000000 0.000000 0.000000 10.000000 
R_mid_tent01 0.000000 0.000000 0.000000 0.000000 0.000000 0.000000 10.000000 
spine01 0.000000 0.000000 0.000000 0.000000 0.000000 0.000000 10.000000 
Bip01_Neck 0.000000 0.000000 0.000000 0.000000 0.000000 0.000000 10.000000 
L_humerus 0.000000 0.000000 0.000000 0.000000 0.000000 0.000000 10.000000 
R_humerus 0.000000 0.000000 0.000000 0.000000 0.000000 0.000000 10.000000 
weapon_bone 0.000000 0.000000 0.000000 0.000000 0.000000 0.000000 10.000000 
Bip01_Head 0.000000 0.000000 0.000000 0.000000 0.000000 0.000000 10.000000 
eye_left_bone 0.000000 0.000000 0.000000 0.000000 0.000000 0.000000 10.000000 
eye_right_bone 0.000000 0.000000 0.000000 0.000000 0.000000 0.000000 10.000000 
L_forearm 0.000000 0.000000 0.000000 0.000000 0.000000 0.000000 10.000000 
L_front_hand 0.000000 0.000000 0.000000 0.000000 0.000000 0.000000 10.000000 
L_weapon_bone 0.000000 0.000000 0.000000 0.000000 0.000000 0.000000 10.000000 
L_front_hand01_01 0.000000 0.000000 0.000000 0.000000 0.000000 0.000000 10.000000 
L_front_hand02_01 0.000000 0.000000 0.000000 0.000000 0.000000 0.000000 10.000000 
L_front_hand03_01 0.000000 0.000000 0.000000 0.000000 0.000000 0.000000 10.000000 
L_front_hand01_02 0.000000 0.000000 0.000000 0.000000 0.000000 0.000000 10.000000 
L_front_hand02_02 0.000000 0.000000 0.000000 0.000000 0.000000 0.000000 10.000000 
L_front_hand03_02 0.000000 0.000000 0.000000 0.000000 0.000000 0.000000 10.000000 
R_forearm 0.000000 0.000000 0.000000 0.000000 0.000000 0.000000 10.000000 
R_front_hand 0.000000 0.000000 0.000000 0.000000 0.000000 0.000000 10.000000 
R_weapon_bone 0.000000 0.000000 0.000000 0.000000 0.000000 0.000000 10.000000 
R_front_hand01_01 0.000000 0.000000 0.000000 0.000000 0.000000 0.000000 10.000000 
R_front_hand02_01 0.000000 0.000000 0.000000 0.000000 0.000000 0.000000 10.000000 
R_front_hand03_01 0.000000 0.000000 0.000000 0.000000 0.000000 0.000000 10.000000 
R_front_hand01_02 0.000000 0.000000 0.000000 0.000000 0.000000 0.000000 10.000000 
R_front_hand02_02 0.000000 0.000000 0.000000 0.000000 0.000000 0.000000 10.000000 
R_front_hand03_02 0.000000 0.000000 0.000000 0.000000 0.000000 0.000000 10.000000 
null_rope01_connect 0.000000 0.000000 0.000000 0.000000 0.000000 0.000000 10.000000 
Rope1_Seg01 0.000000 0.000000 0.000000 0.000000 0.000000 0.000000 10.000000 
Rope1_Seg02 0.000000 0.000000 0.000000 0.000000 0.000000 0.000000 10.000000 
Rope1_Seg03 0.000000 0.000000 0.000000 0.000000 0.000000 0.000000 10.000000 
Rope1_Seg04 0.000000 0.000000 0.000000 0.000000 0.000000 0.000000 10.000000 
Rope1_Seg05 0.000000 0.000000 0.000000 0.000000 0.000000 0.000000 10.000000 
Rope1_Seg06 0.000000 0.000000 0.000000 0.000000 0.000000 0.000000 10.000000 
Rope1_Seg07 0.000000 0.000000 0.000000 0.000000 0.000000 0.000000 10.000000 
Rope1_Seg09 0.000000 0.000000 0.000000 0.000000 0.000000 0.000000 10.000000 
L_mid_hand01 0.000000 0.000000 0.000000 0.000000 0.000000 0.000000 10.000000 
L_mid_hand02 0.000000 0.000000 0.000000 0.000000 0.000000 0.000000 10.000000 
L_mid_hand03 0.000000 0.000000 0.000000 0.000000 0.000000 0.000000 10.000000 
null_rope02_connect 0.000000 0.000000 0.000000 0.000000 0.000000 0.000000 10.000000 
Rope2_Seg01 0.000000 0.000000 0.000000 0.000000 0.000000 0.000000 10.000000 
Rope2_Seg02 0.000000 0.000000 0.000000 0.000000 0.000000 0.000000 10.000000 
Rope2_Seg03 0.000000 0.000000 0.000000 0.000000 0.000000 0.000000 10.000000 
Rope2_Seg04 0.000000 0.000000 0.000000 0.000000 0.000000 0.000000 10.000000 
Rope2_Seg05 0.000000 0.000000 0.000000 0.000000 0.000000 0.000000 10.000000 
Rope2_Seg06 0.000000 0.000000 0.000000 0.000000 0.000000 0.000000 10.000000 
Rope2_Seg07 0.000000 0.000000 0.000000 0.000000 0.000000 0.000000 10.000000 
Rope2_Seg09 0.000000 0.000000 0.000000 0.000000 0.000000 0.000000 10.000000 
R_mid_hand01 0.000000 0.000000 0.000000 0.000000 0.000000 0.000000 10.000000 
R_mid_hand02 0.000000 0.000000 0.000000 0.000000 0.000000 0.000000 10.000000 
R_mid_hand03 0.000000 0.000000 0.000000 0.000000 0.000000 0.000000 10.000000 
spine02 0.000000 0.000000 0.000000 0.000000 0.000000 0.000000 10.000000 
spine03 0.000000 0.000000 0.000000 0.000000 0.000000 0.000000 10.000000 
pelvis 0.000000 0.000000 0.000000 0.000000 0.000000 0.000000 10.000000 
null_rope03_connect 0.000000 0.000000 0.000000 0.000000 0.000000 0.000000 10.000000 
null_rope04_connect 0.000000 0.000000 0.000000 0.000000 0.000000 0.000000 10.000000 
Rope3_Seg01 0.000000 0.000000 0.000000 0.000000 0.000000 0.000000 10.000000 
Rope3_Seg02 0.000000 0.000000 0.000000 0.000000 0.000000 0.000000 10.000000 
Rope3_Seg03 0.000000 0.000000 0.000000 0.000000 0.000000 0.000000 10.000000 
Rope3_Seg04 0.000000 0.000000 0.000000 0.000000 0.000000 0.000000 10.000000 
Rope3_Seg05 0.000000 0.000000 0.000000 0.000000 0.000000 0.000000 10.000000 
Rope3_Seg06 0.000000 0.000000 0.000000 0.000000 0.000000 0.000000 10.000000 
Rope3_Seg07 0.000000 0.000000 0.000000 0.000000 0.000000 0.000000 10.000000 
Rope3_Seg08 0.000000 0.000000 0.000000 0.000000 0.000000 0.000000 10.000000 
Rope3_Seg09 0.000000 0.000000 0.000000 0.000000 0.000000 0.000000 10.000000 
R_rear_hand01 0.000000 0.000000 0.000000 0.000000 0.000000 0.000000 10.000000 
R_rear_hand02 0.000000 0.000000 0.000000 0.000000 0.000000 0.000000 10.000000 
R_rear_hand03 0.000000 0.000000 0.000000 0.000000 0.000000 0.000000 10.000000 
Rope4_Seg01 0.000000 0.000000 0.000000 0.000000 0.000000 0.000000 10.000000 
Rope4_Seg02 0.000000 0.000000 0.000000 0.000000 0.000000 0.000000 10.000000 
Rope4_Seg03 0.000000 0.000000 0.000000 0.000000 0.000000 0.000000 10.000000 
Rope4_Seg04 0.000000 0.000000 0.000000 0.000000 0.000000 0.000000 10.000000 
Rope4_Seg05 0.000000 0.000000 0.000000 0.000000 0.000000 0.000000 10.000000 
Rope4_Seg06 0.000000 0.000000 0.000000 0.000000 0.000000 0.000000 10.000000 
Rope4_Seg07 0.000000 0.000000 0.000000 0.000000 0.000000 0.000000 10.000000 
Rope4_Seg08 0.000000 0.000000 0.000000 0.000000 0.000000 0.000000 10.000000 
Rope4_Seg09 0.000000 0.000000 0.000000 0.000000 0.000000 0.000000 10.000000 
L_rear_hand01 0.000000 0.000000 0.000000 0.000000 0.000000 0.000000 10.000000 
L_rear_hand02 0.000000 0.000000 0.000000 0.000000 0.000000 0.000000 10.000000 
L_rear_hand03 0.000000 0.000000 0.000000 0.000000 0.000000 0.000000 10.000000 
#Beginning of Data. Separated by tabs
#Fr	Tx	Ty	Tz	Rx	Ry	Rz	SF
[MASTER]
117 0.000000 0.000000 0.000000 0.000000 -0.002347 -89.999992 0.000000
118 0.000000 0.000000 0.000000 0.000000 -0.002347 -90.000000 0.000000
[root]
117 -14.348912 148.709625 509.829468 -88.582230 -10.448836 179.361130 531.268799
118 -14.348913 148.342026 500.492798 -88.582230 -10.448836 179.361130 522.210999
[chest]
117 -84.512650 -34.090519 0.000000 4.189264 -1.423898 -178.747238 91.129311
118 -84.512650 -34.090519 0.000000 2.598343 -0.678407 -178.721542 91.129311
[L_mid_tent01]
117 27.299511 22.177458 -249.918259 -63.657543 18.686338 33.262241 252.381134
118 27.299511 22.177458 -249.918259 -63.657543 18.686338 33.262241 252.381134
[R_mid_tent01]
117 23.228794 24.509907 226.238495 -131.259216 -15.836094 39.582561 228.744751
118 23.228794 24.509907 226.238495 -131.259216 -15.836094 39.582561 228.744751
[spine01]
117 -0.361383 -0.195265 0.000000 0.001845 0.001451 13.654368 0.410763
118 -0.361383 -0.195265 0.000000 0.001845 0.001451 13.654368 0.410763
[Bip01_Neck]
117 165.484543 71.581718 0.000119 176.643677 -1.657967 43.431911 180.302734
118 165.484543 71.581718 0.000119 176.643677 -1.657967 43.431911 180.302734
[L_humerus]
117 -13.983130 -135.272980 -120.471481 133.637497 52.943523 -144.159607 181.680161
118 -13.983130 -135.272980 -120.471481 132.813705 53.889931 -145.053436 181.680161
[R_humerus]
117 -13.983309 -135.273102 125.287651 -132.332123 -36.734722 -149.132507 184.909012
118 -13.983309 -135.273102 125.287651 -131.531937 -37.230236 -149.902573 184.909012
[weapon_bone]
117 235.964890 -300.705902 0.000000 0.000000 -89.951546 -128.212341 382.234833
118 235.964890 -300.705902 0.000000 0.000000 -89.951546 -128.212341 382.234833
[Bip01_Head]
117 128.171936 128.412277 8.333419 1.938589 3.724703 -19.795940 181.623810
118 128.171936 128.412277 8.333419 1.938589 3.724703 -19.795940 181.623810
[eye_left_bone]
117 -24.626970 125.451866 -64.772606 0.000000 -90.000000 -99.840431 143.318359
118 -24.626970 125.451866 -64.772606 0.000000 -90.000000 -99.840431 143.318359
[eye_right_bone]
117 -24.626970 125.451866 64.327362 0.000000 -89.965736 80.156380 143.117676
118 -24.626970 125.451866 64.327362 0.000000 -89.965736 80.156380 143.117676
[L_forearm]
117 322.776093 0.000000 -0.000119 0.000349 -0.002323 -107.074471 322.776093
118 322.776093 0.000000 -0.000119 0.000429 -0.002308 -111.053925 322.776093
[L_front_hand]
117 241.149185 -0.042021 -3.300071 -146.311249 -1.835018 -27.424923 241.171753
118 241.149185 -0.042021 -3.300071 -146.311249 -1.835018 -27.424923 241.171753
[L_weapon_bone]
117 156.183838 0.000000 0.000000 0.000014 0.000007 0.000001 156.183838
118 156.183838 0.000000 0.000000 0.000014 0.000007 0.000001 156.183838
[L_front_hand01_01]
117 86.095154 20.947098 -0.655860 -0.366594 -0.477154 75.385574 88.609184
118 86.095154 20.947098 -0.655860 -0.366594 -0.477154 75.385574 88.609184
[L_front_hand02_01]
117 86.935165 -11.437475 24.513514 154.399796 -59.883835 -61.369587 91.046425
118 86.935165 -11.437475 24.513514 154.399796 -59.883835 -61.369587 91.046425
[L_front_hand03_01]
117 86.637497 -14.123976 -20.424902 -153.913849 58.118122 -62.702866 90.126129
118 86.637497 -14.123976 -20.424902 -153.913879 58.118130 -62.702892 90.126129
[L_front_hand01_02]
117 71.020905 -0.000179 0.000030 0.000334 -0.002323 -106.379684 71.020905
118 71.020905 -0.000179 0.000030 0.000334 -0.002323 -106.379684 71.020905
[L_front_hand02_02]
117 71.020927 -0.000119 0.000060 0.000334 -0.002323 -106.379684 71.020927
118 71.020927 -0.000119 0.000060 0.000334 -0.002323 -106.379684 71.020927
[L_front_hand03_02]
117 71.020905 -0.000060 0.000060 0.000334 -0.002323 -106.379684 71.020905
118 71.020905 -0.000060 0.000060 0.000334 -0.002323 -106.379684 71.020905
[R_forearm]
117 322.776428 -0.000060 0.000030 0.211472 0.033087 -99.666183 322.776428
118 322.776428 -0.000060 0.000030 0.208857 0.048735 -104.421120 322.776428
[R_front_hand]
117 238.847015 -0.006795 2.210259 144.522858 -10.645197 -26.316439 238.857239
118 238.847015 -0.006795 2.210259 144.522858 -10.645197 -26.316439 238.857239
[R_weapon_bone]
117 155.664093 0.002503 -0.000030 0.003487 0.001180 -90.988930 155.664078
118 155.664093 0.002503 -0.000030 0.003487 0.001180 -90.988930 155.664078
[R_front_hand01_01]
117 87.624611 14.231146 22.918642 -154.633499 -59.950619 61.746044 91.683487
118 87.624611 14.231146 22.918642 -154.633499 -59.950619 61.746044 91.683487
[R_front_hand02_01]
117 89.356956 14.367283 -19.491137 154.602661 58.302849 63.744389 92.579636
118 89.356956 14.367283 -19.491137 154.602661 58.302849 63.744389 92.579636
[R_front_hand03_01]
117 87.286232 -22.307278 -0.143439 0.162155 -0.423168 -75.767921 90.091743
118 87.286232 -22.307278 -0.143439 0.162155 -0.423168 -75.767921 90.091743
[R_front_hand01_02]
117 71.020905 0.000060 0.000119 0.002323 -0.000334 106.381714 71.020905
118 71.020905 0.000060 0.000119 0.002323 -0.000334 106.381714 71.020905
[R_front_hand02_02]
117 71.020844 -0.000030 -0.000119 0.002323 -0.000334 106.381714 71.020836
118 71.020844 -0.000030 -0.000119 0.002323 -0.000334 106.381714 71.020836
[R_front_hand03_02]
117 71.020905 0.000000 0.000030 0.002323 -0.000334 106.381714 71.020905
118 71.020905 0.000000 0.000030 0.002323 -0.000334 106.381714 71.020905
[null_rope01_connect]
117 328.732483 0.000000 -0.000238 -166.231216 26.298841 69.278107 328.732483
118 328.732483 0.000000 -0.000238 -166.231216 26.298847 69.278114 328.732483
[Rope1_Seg01]
117 0.000000 0.000000 0.000000 126.971222 -24.840439 -67.271141 0.000000
118 0.000000 0.000000 0.000000 128.720963 -26.614296 -67.753029 0.000000
[Rope1_Seg02]
117 139.999863 -0.000179 0.000000 -5.488020 -2.992587 -6.783455 139.999863
118 139.999863 -0.000179 0.000000 -5.806173 -3.226834 -6.814201 139.999863
[Rope1_Seg03]
117 139.999924 0.000060 -0.000060 -6.253861 -3.349594 -10.245471 139.999924
118 139.999924 0.000060 -0.000060 -6.711057 -3.675672 -10.499928 139.999924
[Rope1_Seg04]
117 139.999924 -0.000060 -0.000119 -5.529182 -2.248818 -14.484285 139.999924
118 139.999924 -0.000060 -0.000119 -6.033403 -2.616124 -15.348673 139.999924
[Rope1_Seg05]
117 139.999832 0.000119 -0.000060 -3.442026 -1.608191 -16.210566 139.999832
118 139.999832 0.000119 -0.000060 -3.579535 -1.653241 -16.823008 139.999832
[Rope1_Seg06]
117 139.999954 0.000119 -0.000060 0.525685 -4.970852 -30.251066 139.999954
118 139.999954 0.000119 -0.000060 0.414692 -4.835090 -29.363049 139.999954
[Rope1_Seg07]
117 139.999985 0.000060 0.000000 9.756880 -4.788273 -31.788158 139.999985
118 139.999985 0.000060 0.000000 9.483612 -4.817108 -31.664608 139.999985
[Rope1_Seg09]
117 121.602913 0.000119 -0.000089 -89.793175 -1.359789 0.847147 121.602913
118 121.602913 0.000119 -0.000089 -89.793175 -1.359789 0.847147 121.602913
[L_mid_hand01]
117 103.859421 1.038730 8.195221 109.056198 -40.604698 -13.201401 104.187431
118 103.859421 1.038730 8.195221 109.056198 -40.604698 -13.201401 104.187431
[L_mid_hand02]
117 105.572853 -4.139662 -10.864139 -146.713593 31.476528 -37.902313 106.211075
118 105.572853 -4.139662 -10.864139 -146.713593 31.476524 -37.902309 106.211075
[L_mid_hand03]
117 104.641464 17.579376 -3.913581 -14.267233 12.322316 43.898396 106.179977
118 104.641464 17.579376 -3.913581 -14.267233 12.322316 43.898396 106.179977
[null_rope02_connect]
117 328.732849 0.000179 -0.000119 -164.342651 -37.938038 110.680077 328.732849
118 328.732849 0.000179 -0.000119 -164.342651 -37.938038 110.680077 328.732849
[Rope2_Seg01]
117 -0.000038 -0.000114 0.000110 -65.347382 -40.371773 -109.569061 0.000163
118 -0.000038 -0.000114 0.000110 -65.835495 -41.506836 -109.794823 0.000163
[Rope2_Seg02]
117 139.999741 -0.000060 -0.000119 4.239503 3.415852 6.468993 139.999756
118 139.999741 -0.000060 -0.000119 4.109225 3.083354 6.397841 139.999756
[Rope2_Seg03]
117 140.000107 0.000030 0.000000 7.653384 7.137422 11.576911 140.000107
118 140.000107 0.000030 0.000000 7.630456 6.562947 11.618350 140.000107
[Rope2_Seg04]
117 139.999802 0.000000 -0.000060 15.006445 18.512247 24.388430 139.999802
118 139.999802 0.000000 -0.000060 16.042093 17.712376 25.606497 139.999802
[Rope2_Seg05]
117 139.999985 -0.000060 0.000119 8.394215 23.556200 21.448563 139.999985
118 139.999985 -0.000060 0.000119 10.032927 24.239822 23.547915 139.999985
[Rope2_Seg06]
117 139.999893 -0.000030 -0.000119 0.204150 12.729584 10.029645 139.999893
118 139.999893 -0.000030 -0.000119 0.360350 12.773913 8.894204 139.999893
[Rope2_Seg07]
117 139.999893 0.000060 -0.000060 -2.285830 18.176514 15.597698 139.999893
118 139.999893 0.000060 -0.000060 -2.156808 18.018015 12.326405 139.999893
[Rope2_Seg09]
117 121.338966 0.000089 -0.000060 33.793236 -1.359788 -0.847141 121.338966
118 121.338966 0.000089 -0.000060 33.793236 -1.359788 -0.847141 121.338966
[R_mid_hand01]
117 104.680779 11.144459 -10.335981 -37.204079 31.906813 37.576260 105.778534
118 104.680779 11.144459 -10.335981 -37.204079 31.906813 37.576260 105.778534
[R_mid_hand02]
117 104.070427 2.443552 8.231699 70.367462 -42.427391 14.067809 104.424065
118 104.070427 2.443552 8.231699 70.367462 -42.427391 14.067809 104.424065
[R_mid_hand03]
117 106.028137 -11.221827 -5.996406 -169.893616 12.226658 -47.211018 106.788818
118 106.028137 -11.221827 -5.996406 -169.893616 12.226661 -47.211018 106.788818
[spine02]
117 129.756927 0.001550 0.000119 -1.023899 -3.926965 6.770993 129.756927
118 129.756927 0.001550 0.000119 -1.023899 -3.926965 6.770993 129.756927
[spine03]
117 78.613846 0.087372 -4.898873 1.040681 4.146420 4.212376 78.766380
118 78.613846 0.087372 -4.898873 1.040681 4.146420 4.212376 78.766380
[pelvis]
117 169.435242 0.051022 0.000000 0.019518 -0.190233 -10.721436 169.435257
118 169.435242 0.051022 0.000000 0.019518 -0.190233 -10.721436 169.435257
[null_rope03_connect]
117 -1.257226 -2.466202 137.391083 21.146282 88.832657 -72.228729 137.418976
118 -1.257226 -2.466202 137.391083 21.146282 88.832657 -72.228729 137.418976
[null_rope04_connect]
117 -1.259640 -2.480268 -137.844437 21.146282 88.832657 -72.228729 137.872513
118 -1.259640 -2.480268 -137.844437 21.146282 88.832657 -72.228729 137.872513
[Rope3_Seg01]
117 0.000000 0.000000 0.000000 -150.177246 -42.597462 125.581009 0.000000
118 0.000000 0.000000 0.000000 -146.656754 -43.390060 119.937027 0.000000
[Rope3_Seg02]
117 139.999924 -0.000119 0.000060 5.676912 -9.981619 5.443021 139.999924
118 139.999924 -0.000119 0.000060 5.346964 -11.675816 5.324821 139.999924
[Rope3_Seg03]
117 139.999924 -0.000119 0.000119 7.873078 -14.317224 10.085003 139.999924
118 139.999924 -0.000119 0.000119 7.599763 -16.420212 9.731254 139.999924
[Rope3_Seg04]
117 139.999924 0.000119 0.000000 6.985598 -14.443952 13.496830 139.999924
118 139.999924 0.000119 0.000000 6.854002 -15.357930 11.071403 139.999924
[Rope3_Seg05]
117 139.999924 -0.000238 0.000060 4.268593 -10.049492 13.521413 139.999924
118 139.999924 -0.000238 0.000060 4.624573 -10.278454 12.444132 139.999924
[Rope3_Seg06]
117 139.999893 -0.000119 -0.000060 -0.106080 -15.680750 30.405394 139.999893
118 139.999893 -0.000119 -0.000060 0.297114 -15.885754 32.322960 139.999893
[Rope3_Seg07]
117 139.999771 0.000060 -0.000119 -8.570673 -13.529001 31.327038 139.999771
118 139.999771 0.000060 -0.000119 -8.204954 -12.639756 31.241064 139.999771
[Rope3_Seg08]
117 139.999985 -0.000060 0.000000 -4.413606 -6.241653 10.939636 139.999985
118 139.999985 -0.000060 0.000000 -4.295883 -5.860761 10.742396 139.999985
[Rope3_Seg09]
117 90.185997 -0.000179 -0.000060 89.793228 -1.359877 -0.847183 90.185997
118 90.185997 -0.000179 -0.000060 89.793228 -1.359877 -0.847183 90.185997
[R_rear_hand01]
117 103.366196 -6.073594 -10.757982 -164.755127 19.627697 -40.352165 104.101845
118 103.366196 -6.073594 -10.757982 -164.755127 19.627697 -40.352161 104.101845
[R_rear_hand02]
117 100.509819 12.039542 -7.992327 -30.792652 24.782448 38.141541 101.543350
118 100.509819 12.039542 -7.992327 -30.792652 24.782448 38.141541 101.543350
[R_rear_hand03]
117 101.539970 5.215704 5.435467 82.448349 -41.048256 8.840378 101.819031
118 101.539970 5.215704 5.435467 82.448349 -41.048256 8.840378 101.819031
[Rope4_Seg01]
117 0.000010 0.000038 -0.000114 62.947563 -44.081337 63.489395 0.000121
118 0.000010 0.000038 -0.000114 61.820213 -45.056068 65.659279 0.000121
[Rope4_Seg02]
117 139.999985 0.000060 0.000119 -4.690067 2.006186 -11.008151 139.999985
118 139.999985 0.000060 0.000119 -4.362656 1.845938 -11.079350 139.999985
[Rope4_Seg03]
117 139.999924 0.000000 -0.000238 -7.823573 4.064489 -15.504766 139.999924
118 139.999924 0.000000 -0.000238 -7.509901 3.802608 -15.807647 139.999924
[Rope4_Seg04]
117 139.999985 0.000000 0.000119 -8.902094 4.633204 -16.252398 139.999985
118 139.999985 0.000000 0.000119 -8.783529 4.072269 -16.751623 139.999985
[Rope4_Seg05]
117 139.999802 -0.000060 -0.000119 -6.534520 5.794723 -11.004023 139.999802
118 139.999802 -0.000060 -0.000119 -6.674566 5.641871 -11.380898 139.999802
[Rope4_Seg06]
117 139.999924 0.000000 0.000060 -11.169819 18.384567 -18.190178 139.999924
118 139.999924 0.000000 0.000060 -11.953761 19.522116 -19.447918 139.999924
[Rope4_Seg07]
117 139.999802 0.000000 0.000000 -11.616754 39.786339 -32.223396 139.999802
118 139.999802 0.000000 0.000000 -11.111889 40.277603 -32.311874 139.999802
[Rope4_Seg08]
117 139.999924 0.000000 0.000119 2.396508 14.140565 -10.033247 139.999924
118 139.999924 0.000000 0.000119 2.471553 13.278073 -9.583631 139.999924
[Rope4_Seg09]
117 90.185791 0.000060 0.000060 -135.617828 2.228885 0.850567 90.185791
118 90.185791 0.000060 0.000060 -135.617828 2.228885 0.850567 90.185791
[L_rear_hand01]
117 101.696655 -8.392275 -7.654577 -31.684452 -23.583008 144.025742 102.329041
118 101.696655 -8.392275 -7.654577 -31.684452 -23.583008 144.025742 102.329041
[L_rear_hand02]
117 102.726799 -1.568258 5.773216 82.701553 38.753956 171.553619 102.900848
118 102.726799 -1.568258 5.773216 82.701553 38.753956 171.553619 102.900848
[L_rear_hand03]
117 104.552910 9.721220 -10.420293 -163.975403 -19.004421 -142.009338 105.519653
118 104.552910 9.721220 -10.420293 -163.975388 -19.004416 -142.009338 105.519653
